<svg width="379" height="379" viewBox="0 0 379 379" fill="none" xmlns="http://www.w3.org/2000/svg">
<path d="M98.5022 25.834H25.6963V90.9689H98.5022V25.834Z" fill="#FAFAFA"/>
<path d="M98.5396 90.9609C98.5396 90.9609 98.5396 90.544 98.5396 89.7481C98.5396 88.9522 98.5396 87.7849 98.5396 86.2613C98.5396 83.2293 98.5396 78.7344 98.4941 73.0418C98.4941 61.6718 98.4487 45.3975 98.4108 25.8184L98.5775 25.9852H25.8095L25.999 25.7881C25.999 49.4907 25.999 71.7911 25.999 90.9306L25.8323 90.7563L78.4905 90.8472L93.2336 90.9609H97.1676H98.1834H97.1752H93.2791L78.4602 91.0064L25.6958 91.0898H25.5215V90.9609C25.5215 71.8214 25.5215 49.5211 25.5215 25.8184V25.6289H25.7261H98.4941H98.6609V25.7881C98.6609 45.4051 98.5927 61.7097 98.5775 73.11C98.5775 78.7874 98.5396 83.2445 98.5321 86.2992C98.5321 87.8152 98.5321 88.9674 98.5321 89.7557C98.5321 90.544 98.5396 90.9609 98.5396 90.9609Z" fill="#E0E0E0"/>
<path d="M53.6135 37.4083C53.6135 37.522 49.778 37.6053 45.0556 37.6053C40.3333 37.6053 36.4902 37.522 36.4902 37.4083C36.4902 37.2945 40.3257 37.2188 45.0556 37.2188C49.7856 37.2188 53.6135 37.3021 53.6135 37.4083Z" fill="#E0E0E0"/>
<path d="M84.4638 42.3045C84.4638 42.4106 73.9352 42.494 60.9658 42.494C47.9964 42.494 37.4678 42.4106 37.4678 42.3045C37.4678 42.1984 47.9888 42.1074 60.9658 42.1074C73.9427 42.1074 84.4638 42.1908 84.4638 42.3045Z" fill="#E0E0E0"/>
<path d="M39.689 50.5898H36.6191V53.6597H39.689V50.5898Z" fill="#E0E0E0"/>
<path d="M47.2379 50.5898H44.168V53.6597H47.2379V50.5898Z" fill="#E0E0E0"/>
<path d="M54.9322 50.4453H51.8623V53.5152H54.9322V50.4453Z" fill="#E0E0E0"/>
<path d="M62.3375 50.5898H59.2676V53.6597H62.3375V50.5898Z" fill="#E0E0E0"/>
<path d="M69.8873 50.5898H66.8174V53.6597H69.8873V50.5898Z" fill="#E0E0E0"/>
<path d="M77.4449 50.5898H74.375V53.6597H77.4449V50.5898Z" fill="#E0E0E0"/>
<path d="M84.9947 50.5898H81.9248V53.6597H84.9947V50.5898Z" fill="#EBEBEB"/>
<path d="M39.689 57.1094H36.6191V60.1793H39.689V57.1094Z" fill="#EBEBEB"/>
<path d="M47.2379 57.1094H44.168V60.1793H47.2379V57.1094Z" fill="#E0E0E0"/>
<path d="M54.7877 57.1094H51.7178V60.1793H54.7877V57.1094Z" fill="#EBEBEB"/>
<path d="M62.3375 57.1094H59.2676V60.1793H62.3375V57.1094Z" fill="#E0E0E0"/>
<path d="M69.8873 57.1094H66.8174V60.1793H69.8873V57.1094Z" fill="#E0E0E0"/>
<path d="M77.5806 56.9648H74.5107V60.0347H77.5806V56.9648Z" fill="#E0E0E0"/>
<path d="M84.9947 57.1094H81.9248V60.1793H84.9947V57.1094Z" fill="#E0E0E0"/>
<path d="M39.689 63.627H36.6191V66.6968H39.689V63.627Z" fill="#E0E0E0"/>
<path d="M47.3824 63.4902H44.3125V66.5601H47.3824V63.4902Z" fill="#E0E0E0"/>
<path d="M54.7877 63.627H51.7178V66.6968H54.7877V63.627Z" fill="#E0E0E0"/>
<path d="M62.3375 63.627H59.2676V66.6968H62.3375V63.627Z" fill="#EBEBEB"/>
<path d="M69.8873 63.627H66.8174V66.6968H69.8873V63.627Z" fill="#E0E0E0"/>
<path d="M77.4449 63.627H74.375V66.6968H77.4449V63.627Z" fill="#E0E0E0"/>
<path d="M84.9947 63.627H81.9248V66.6968H84.9947V63.627Z" fill="#E0E0E0"/>
<path d="M39.689 70.1465H36.6191V73.2164H39.689V70.1465Z" fill="#E0E0E0"/>
<path d="M47.2379 70.1465H44.168V73.2164H47.2379V70.1465Z" fill="#E0E0E0"/>
<path d="M54.7877 70.1465H51.7178V73.2164H54.7877V70.1465Z" fill="#E0E0E0"/>
<path d="M62.482 70.0098H59.4121V73.0797H62.482V70.0098Z" fill="#E0E0E0"/>
<path d="M69.8873 70.1465H66.8174V73.2164H69.8873V70.1465Z" fill="#E0E0E0"/>
<path d="M77.4449 70.1465H74.375V73.2164H77.4449V70.1465Z" fill="#EBEBEB"/>
<path d="M84.9947 70.1465H81.9248V73.2164H84.9947V70.1465Z" fill="#E0E0E0"/>
<path d="M39.689 76.6719H36.6191V79.7418H39.689V76.6719Z" fill="#E0E0E0"/>
<path d="M47.2379 76.6719H44.168V79.7418H47.2379V76.6719Z" fill="#EBEBEB"/>
<path d="M54.7877 76.6719H51.7178V79.7418H54.7877V76.6719Z" fill="#E0E0E0"/>
<path d="M62.3375 76.6719H59.2676V79.7418H62.3375V76.6719Z" fill="#E0E0E0"/>
<path d="M69.8873 76.6719H66.8174V79.7418H69.8873V76.6719Z" fill="#E0E0E0"/>
<path d="M77.5806 76.5293H74.5107V79.5992H77.5806V76.5293Z" fill="#E0E0E0"/>
<path d="M84.9947 76.6719H81.9248V79.7418H84.9947V76.6719Z" fill="#E0E0E0"/>
<path d="M356.639 27.1602H305.064V78.7345H356.639V27.1602Z" fill="white"/>
<path d="M356.638 78.7428C356.638 78.7428 356.638 78.6518 356.638 78.4926C356.638 78.3334 356.638 78.0833 356.638 77.7346C356.638 77.0979 356.638 76.1656 356.638 74.9603C356.638 72.5196 356.638 68.9721 356.593 64.462C356.593 55.4343 356.54 42.5634 356.502 27.123L356.676 27.2973H305.132L305.329 27.1002C305.329 45.9896 305.329 63.6889 305.329 78.6821L305.163 78.5078L342.494 78.5987L352.992 78.6442H355.774H356.487H356.737H355.812H353.061L342.608 78.6897L305.163 78.7731H304.988V78.6063C304.988 63.6131 304.988 45.9138 304.988 27.0623V26.8652H305.185H356.729H356.904V27.032C356.866 42.5179 356.836 55.4267 356.813 64.4772C356.813 68.9721 356.813 72.512 356.767 74.9376C356.767 76.1352 356.767 77.0524 356.767 77.6816C356.767 77.9848 356.767 78.2122 356.767 78.3789C356.767 78.5457 356.638 78.7428 356.638 78.7428Z" fill="#E0E0E0"/>
<path d="M356.419 40.3653C356.419 40.4714 344.92 40.5624 330.738 40.5624C316.556 40.5624 305.064 40.4714 305.064 40.3653C305.064 40.2592 316.556 40.1758 330.738 40.1758C344.92 40.1758 356.419 40.2592 356.419 40.3653Z" fill="#E0E0E0"/>
<path d="M310.082 34.9591C310.89 34.9591 311.545 34.3041 311.545 33.4961C311.545 32.6882 310.89 32.0332 310.082 32.0332C309.274 32.0332 308.619 32.6882 308.619 33.4961C308.619 34.3041 309.274 34.9591 310.082 34.9591Z" fill="#E0E0E0"/>
<path d="M314.539 34.9591C315.347 34.9591 316.002 34.3041 316.002 33.4961C316.002 32.6882 315.347 32.0332 314.539 32.0332C313.731 32.0332 313.076 32.6882 313.076 33.4961C313.076 34.3041 313.731 34.9591 314.539 34.9591Z" fill="#E0E0E0"/>
<path d="M320.459 33.4962C320.459 33.7855 320.373 34.0684 320.213 34.3089C320.052 34.5495 319.823 34.737 319.556 34.8477C319.289 34.9585 318.995 34.9874 318.711 34.931C318.427 34.8745 318.166 34.7352 317.962 34.5306C317.757 34.326 317.618 34.0654 317.561 33.7816C317.505 33.4978 317.534 33.2036 317.645 32.9363C317.755 32.669 317.943 32.4405 318.183 32.2798C318.424 32.119 318.707 32.0332 318.996 32.0332C319.189 32.0322 319.379 32.0694 319.557 32.1425C319.735 32.2157 319.897 32.3234 320.033 32.4595C320.169 32.5955 320.277 32.7572 320.35 32.9351C320.423 33.1131 320.46 33.3038 320.459 33.4962Z" fill="#E0E0E0"/>
<path d="M315.51 55.5319C317.825 55.5319 319.702 53.6552 319.702 51.3402C319.702 49.0251 317.825 47.1484 315.51 47.1484C313.195 47.1484 311.318 49.0251 311.318 51.3402C311.318 53.6552 313.195 55.5319 315.51 55.5319Z" fill="#EBEBEB"/>
<path d="M319.702 66.7054C319.702 67.5345 319.456 68.3449 318.995 69.0342C318.535 69.7235 317.88 70.2608 317.114 70.5781C316.348 70.8953 315.505 70.9783 314.692 70.8166C313.879 70.6549 313.132 70.2556 312.546 69.6694C311.96 69.0832 311.561 68.3363 311.399 67.5232C311.237 66.7101 311.32 65.8672 311.637 65.1013C311.955 64.3354 312.492 63.6807 313.181 63.2201C313.871 62.7595 314.681 62.5137 315.51 62.5137C316.622 62.5137 317.688 62.9553 318.474 63.7414C319.26 64.5275 319.702 65.5937 319.702 66.7054Z" fill="#EBEBEB"/>
<path d="M348.937 50.9998C348.937 51.1059 343.207 51.1969 336.135 51.1969C329.063 51.1969 323.332 51.1059 323.332 50.9998C323.332 50.8937 329.063 50.8027 336.135 50.8027C343.207 50.8027 348.937 50.8861 348.937 50.9998Z" fill="#E0E0E0"/>
<path d="M332.557 66.6518C329.531 66.9141 326.487 66.9141 323.461 66.6518C326.487 66.3895 329.531 66.3895 332.557 66.6518Z" fill="#E0E0E0"/>
<path d="M348.938 86.5787C357.917 86.5787 365.197 79.2993 365.197 70.3196C365.197 61.34 357.917 54.0605 348.938 54.0605C339.958 54.0605 332.679 61.34 332.679 70.3196C332.679 79.2993 339.958 86.5787 348.938 86.5787Z" fill="#E0E0E0"/>
<path d="M350.469 64.1504H348.953V76.2178H350.469V64.1504Z" fill="white"/>
<path d="M355.744 69.4258H343.677V70.9418H355.744V69.4258Z" fill="white"/>
<path d="M45.2464 206.988C53.5159 203.488 57.3823 193.947 53.8823 185.678C50.3824 177.408 40.8413 173.542 32.5719 177.042C24.3024 180.542 20.4359 190.083 23.9359 198.352C27.4359 206.622 36.9769 210.488 45.2464 206.988Z" fill="#E0E0E0"/>
<path d="M40.4389 185.848H38.9229V197.915H40.4389V185.848Z" fill="white"/>
<path d="M45.7148 191.123H33.6475V192.639H45.7148V191.123Z" fill="white"/>
<path d="M236.056 264.188H125.631V315.11H236.056V264.188Z" fill="#F5F5F5"/>
<path d="M233.464 312.715H128.155V266.863H233.464V312.715ZM128.86 312.025H232.706V267.576H128.86V312.025Z" fill="#E0E0E0"/>
<path d="M263.034 264.188H236.057V315.11H263.034V264.188Z" fill="#E0E0E0"/>
<path d="M128.504 281.052H233.108C233.144 281.052 233.179 281.038 233.204 281.012C233.23 280.987 233.244 280.952 233.244 280.916C233.244 280.88 233.23 280.845 233.204 280.819C233.179 280.794 233.144 280.779 233.108 280.779H128.504C128.467 280.779 128.433 280.794 128.407 280.819C128.382 280.845 128.367 280.88 128.367 280.916C128.367 280.952 128.382 280.987 128.407 281.012C128.433 281.038 128.467 281.052 128.504 281.052Z" fill="#E0E0E0"/>
<path d="M181.162 280.915C181.442 276.308 181.442 271.689 181.162 267.082C181.154 267.05 181.137 267.022 181.111 267.002C181.086 266.982 181.054 266.971 181.022 266.971C180.989 266.971 180.958 266.982 180.932 267.002C180.907 267.022 180.889 267.05 180.881 267.082C180.605 271.689 180.605 276.308 180.881 280.915C180.881 280.944 180.893 280.971 180.912 280.99C180.932 281.01 180.959 281.022 180.987 281.022C181.016 281.022 181.043 281.01 181.062 280.99C181.082 280.971 181.094 280.944 181.094 280.915H181.162Z" fill="#E0E0E0"/>
<path d="M209.284 273.995C209.284 274.277 209.2 274.553 209.044 274.787C208.887 275.021 208.664 275.204 208.404 275.312C208.144 275.42 207.857 275.448 207.581 275.393C207.304 275.338 207.05 275.202 206.851 275.003C206.652 274.804 206.516 274.55 206.461 274.273C206.406 273.997 206.434 273.71 206.542 273.45C206.65 273.19 206.833 272.967 207.067 272.81C207.301 272.654 207.577 272.57 207.859 272.57C208.237 272.57 208.599 272.72 208.866 272.988C209.134 273.255 209.284 273.617 209.284 273.995Z" fill="#E0E0E0"/>
<path d="M154.397 273.995C154.397 274.277 154.313 274.553 154.157 274.787C154 275.021 153.778 275.204 153.517 275.312C153.257 275.42 152.97 275.448 152.694 275.393C152.417 275.338 152.164 275.202 151.964 275.003C151.765 274.804 151.629 274.55 151.574 274.273C151.519 273.997 151.547 273.71 151.655 273.45C151.763 273.19 151.946 272.967 152.18 272.81C152.415 272.654 152.69 272.57 152.972 272.57C153.35 272.57 153.712 272.72 153.98 272.988C154.247 273.255 154.397 273.617 154.397 273.995Z" fill="#E0E0E0"/>
<path d="M182.215 289.792C182.215 290.074 182.132 290.35 181.975 290.584C181.819 290.818 181.596 291.001 181.336 291.109C181.075 291.217 180.789 291.245 180.512 291.19C180.236 291.135 179.982 290.999 179.783 290.8C179.583 290.601 179.448 290.347 179.393 290.07C179.338 289.794 179.366 289.507 179.474 289.247C179.582 288.986 179.764 288.764 179.999 288.607C180.233 288.451 180.508 288.367 180.79 288.367C181.168 288.367 181.531 288.517 181.798 288.785C182.065 289.052 182.215 289.414 182.215 289.792Z" fill="#E0E0E0"/>
<path d="M138.835 315.109L133.15 347.082H136.349L146.825 315.109H138.835Z" fill="#E0E0E0"/>
<path d="M228.241 315.109L232.994 347.135H229.795L220.244 315.109H228.241Z" fill="#E0E0E0"/>
<path d="M249.587 315.109L254.976 347.135H251.777L241.59 315.109H249.587Z" fill="#E0E0E0"/>
<path d="M182.117 304.202C182.117 304.485 182.033 304.76 181.876 304.995C181.719 305.229 181.496 305.412 181.235 305.52C180.974 305.627 180.687 305.655 180.411 305.599C180.134 305.544 179.88 305.407 179.681 305.207C179.482 305.007 179.347 304.753 179.293 304.476C179.239 304.199 179.268 303.912 179.377 303.652C179.486 303.392 179.67 303.169 179.905 303.014C180.141 302.858 180.417 302.776 180.699 302.777C181.076 302.779 181.436 302.93 181.702 303.197C181.968 303.464 182.117 303.826 182.117 304.202Z" fill="#E0E0E0"/>
<path d="M128.504 296.825H233.108C233.139 296.818 233.168 296.8 233.188 296.775C233.208 296.749 233.219 296.718 233.219 296.685C233.219 296.653 233.208 296.621 233.188 296.596C233.168 296.57 233.139 296.552 233.108 296.545H128.504C128.472 296.552 128.444 296.57 128.424 296.596C128.404 296.621 128.393 296.653 128.393 296.685C128.393 296.718 128.404 296.749 128.424 296.775C128.444 296.8 128.472 296.818 128.504 296.825Z" fill="#E0E0E0"/>
<path d="M349.764 347.224C349.764 347.331 275.632 347.421 184.202 347.421C92.7716 347.421 18.624 347.331 18.624 347.224C18.624 347.118 92.7413 347.027 184.202 347.027C275.662 347.027 349.764 347.111 349.764 347.224Z" fill="#263238"/>
<path d="M292.854 52.0898H65.5371V252.369H292.854V52.0898Z" fill="white"/>
<path d="M292.854 174.029H65.5371V207.866H292.854V174.029Z" fill="white"/>
<path d="M292.854 135.318H65.5371V174.037H292.854V135.318Z" fill="#F5F5F5"/>
<path d="M292.854 213.398H65.5371V252.117H292.854V213.398Z" fill="#F5F5F5"/>
<path d="M202.788 147.369C202.788 147.483 175.978 147.574 142.906 147.574C109.835 147.574 83.0244 147.483 83.0244 147.369C83.0244 147.255 109.827 147.172 142.906 147.172C175.986 147.172 202.788 147.263 202.788 147.369Z" fill="#263238"/>
<path d="M133.59 158.148C133.59 158.254 122.22 158.345 108.144 158.345C94.0682 158.345 82.6982 158.254 82.6982 158.148C82.6982 158.042 94.0682 157.951 108.144 157.951C122.22 157.951 133.59 158.042 133.59 158.148Z" fill="#263238"/>
<path d="M202.788 185.564C202.788 185.67 175.978 185.761 142.906 185.761C109.835 185.761 83.0244 185.67 83.0244 185.564C83.0244 185.458 109.827 185.367 142.906 185.367C175.986 185.367 202.788 185.451 202.788 185.564Z" fill="#263238"/>
<path d="M133.59 196.322C133.59 196.436 122.22 196.519 108.144 196.519C94.0682 196.519 82.6982 196.436 82.6982 196.322C82.6982 196.208 94.0682 196.125 108.144 196.125C122.22 196.125 133.59 196.231 133.59 196.322Z" fill="#263238"/>
<path d="M202.788 223.754C202.788 223.86 175.978 223.951 142.906 223.951C109.835 223.951 83.0244 223.86 83.0244 223.754C83.0244 223.648 109.827 223.557 142.906 223.557C175.986 223.557 202.788 223.61 202.788 223.754Z" fill="#263238"/>
<path d="M133.59 234.525C133.59 234.639 122.22 234.722 108.144 234.722C94.0682 234.722 82.6982 234.639 82.6982 234.525C82.6982 234.411 94.0682 234.328 108.144 234.328C122.22 234.328 133.59 234.419 133.59 234.525Z" fill="#263238"/>
<path d="M292.854 51.8398H65.5371V70.949H292.854V51.8398Z" fill="#E0E0E0"/>
<path d="M292.854 69.1367H65.5371V88.2459H292.854V69.1367Z" fill="#F5F5F5"/>
<path d="M79.2187 60.7908C79.2142 61.2654 79.0693 61.728 78.8022 62.1203C78.5351 62.5126 78.1578 62.8171 77.718 62.9952C77.2781 63.1734 76.7953 63.2173 76.3305 63.1214C75.8657 63.0255 75.4397 62.7941 75.1062 62.4565C74.7728 62.1188 74.5467 61.6899 74.4567 61.2239C74.3667 60.7579 74.4167 60.2757 74.6003 59.8381C74.784 59.4005 75.0932 59.0271 75.4888 58.765C75.8844 58.5029 76.3488 58.3638 76.8234 58.3652C77.1405 58.3652 77.4545 58.4282 77.7471 58.5504C78.0397 58.6727 78.3051 58.8518 78.5279 59.0775C78.7508 59.3031 78.9266 59.5708 79.0451 59.8649C79.1637 60.159 79.2227 60.4737 79.2187 60.7908Z" fill="#263238"/>
<path d="M88.0273 60.791C88.0228 61.2666 87.8772 61.73 87.6091 62.1228C87.341 62.5156 86.9624 62.82 86.5212 62.9974C86.08 63.1749 85.596 63.2174 85.1306 63.1196C84.6652 63.0219 84.2393 62.7882 83.9068 62.4483C83.5743 62.1083 83.3501 61.6773 83.2626 61.2099C83.1752 60.7424 83.2284 60.2596 83.4156 59.8224C83.6028 59.3852 83.9154 59.0134 84.314 58.7541C84.7126 58.4947 85.1792 58.3594 85.6548 58.3654C86.2907 58.3734 86.8976 58.6332 87.3423 59.0879C87.787 59.5426 88.0334 60.155 88.0273 60.791Z" fill="#263238"/>
<path d="M96.8271 60.7908C96.8226 61.2651 96.6779 61.7274 96.4111 62.1195C96.1444 62.5117 95.7676 62.8161 95.3281 62.9945C94.8887 63.1729 94.4063 63.2172 93.9417 63.122C93.4771 63.0267 93.0511 62.7961 92.7173 62.4592C92.3835 62.1222 92.1569 61.694 92.066 61.2286C91.9751 60.7631 92.024 60.2811 92.2065 59.8434C92.3891 59.4056 92.697 59.0317 93.0917 58.7687C93.4863 58.5056 93.95 58.3653 94.4242 58.3652C94.7417 58.3652 95.056 58.4281 95.3491 58.5503C95.6421 58.6725 95.908 58.8515 96.1314 59.077C96.3548 59.3026 96.5314 59.5702 96.6508 59.8643C96.7702 60.1585 96.8301 60.4734 96.8271 60.7908Z" fill="#263238"/>
<path d="M292.899 252.413C292.899 251.14 292.854 174.339 292.785 51.8768L292.899 52.0284L65.6962 52.0738L65.8327 51.8768C65.8327 123.061 65.8327 190.856 65.8327 252.413L65.7038 252.231L292.922 252.413L65.7038 252.595H65.5674V252.413C65.5674 190.856 65.5674 123.061 65.5674 51.8768V51.6797H65.7266L292.93 51.7176H293.043V51.8768C292.937 174.339 292.899 251.102 292.899 252.413Z" fill="#263238"/>
<path d="M246.853 100H208.147C206.409 100 205 101.944 205 104.341V116.659C205 119.056 206.409 121 208.147 121H246.853C248.591 121 250 119.056 250 116.659V104.341C250 101.944 248.591 100 246.853 100Z" fill="#CFD8DC"/>
<path d="M219.82 109.97H218.463V111.311H217.834V109.97H216.47V109.379H217.834V108.029H218.463V109.379H219.82V109.97Z" fill="white"/>
<path d="M226.499 110.977H223.709L223.133 112.289H222.375L224.748 107.051H225.506L227.886 112.289H227.128L226.499 110.977ZM226.233 110.378L225.127 107.809L223.997 110.378H226.233Z" fill="white"/>
<path d="M232.237 106.732V112.289H231.547V111.659C231.385 111.878 231.172 112.055 230.926 112.172C230.68 112.29 230.409 112.345 230.137 112.334C229.6 112.334 229.086 112.121 228.706 111.741C228.326 111.362 228.113 110.847 228.113 110.31C228.113 109.773 228.326 109.259 228.706 108.879C229.086 108.5 229.6 108.286 230.137 108.286C230.401 108.275 230.664 108.327 230.904 108.438C231.144 108.548 231.354 108.715 231.517 108.923V106.732H232.237ZM231.524 110.303C231.511 110.042 231.421 109.791 231.266 109.58C231.112 109.37 230.899 109.209 230.653 109.119C230.408 109.029 230.142 109.012 229.888 109.072C229.634 109.131 229.402 109.264 229.223 109.454C229.043 109.644 228.923 109.882 228.878 110.139C228.833 110.397 228.864 110.661 228.968 110.901C229.072 111.141 229.243 111.345 229.462 111.488C229.681 111.63 229.937 111.706 230.198 111.705C230.38 111.709 230.56 111.674 230.728 111.604C230.895 111.534 231.047 111.429 231.171 111.297C231.296 111.165 231.392 111.009 231.453 110.837C231.514 110.666 231.538 110.484 231.524 110.303Z" fill="white"/>
<path d="M237.345 106.732V112.289H236.655V111.659C236.491 111.878 236.276 112.054 236.03 112.171C235.783 112.289 235.511 112.345 235.238 112.334C234.701 112.334 234.186 112.121 233.807 111.741C233.427 111.362 233.214 110.847 233.214 110.31C233.214 109.773 233.427 109.259 233.807 108.879C234.186 108.5 234.701 108.286 235.238 108.286C235.503 108.276 235.767 108.328 236.008 108.438C236.249 108.549 236.46 108.715 236.625 108.923V106.732H237.345ZM236.632 110.303C236.646 110.118 236.622 109.933 236.561 109.759C236.5 109.585 236.404 109.425 236.278 109.289C236.153 109.154 236 109.046 235.831 108.972C235.662 108.898 235.479 108.86 235.295 108.86C235.11 108.86 234.927 108.898 234.758 108.972C234.589 109.046 234.436 109.154 234.311 109.289C234.185 109.425 234.089 109.585 234.028 109.759C233.967 109.933 233.943 110.118 233.957 110.303C233.943 110.487 233.967 110.672 234.028 110.846C234.089 111.02 234.185 111.18 234.311 111.316C234.436 111.451 234.589 111.559 234.758 111.633C234.927 111.707 235.11 111.745 235.295 111.745C235.479 111.745 235.662 111.707 235.831 111.633C236 111.559 236.153 111.451 236.278 111.316C236.404 111.18 236.5 111.02 236.561 110.846C236.622 110.672 236.646 110.487 236.632 110.303Z" fill="white"/>
<path d="M272.888 150.152H239.68C235.975 150.152 232.972 153.156 232.972 156.861V156.868C232.972 160.573 235.975 163.577 239.68 163.577H272.888C276.593 163.577 279.596 160.573 279.596 156.868V156.861C279.596 153.156 276.593 150.152 272.888 150.152Z" fill="#E0E0E0"/>
<path d="M272.88 202.333H239.68C238.799 202.333 237.927 202.159 237.113 201.822C236.299 201.485 235.559 200.991 234.936 200.368C234.314 199.745 233.819 199.005 233.482 198.191C233.145 197.378 232.972 196.505 232.972 195.624C232.972 193.845 233.678 192.139 234.936 190.881C236.195 189.623 237.901 188.916 239.68 188.916H272.88C273.761 188.916 274.634 189.09 275.448 189.427C276.261 189.764 277.001 190.258 277.624 190.881C278.247 191.504 278.741 192.243 279.078 193.057C279.415 193.871 279.589 194.743 279.589 195.624C279.589 196.505 279.415 197.378 279.078 198.191C278.741 199.005 278.247 199.745 277.624 200.368C277.001 200.991 276.261 201.485 275.448 201.822C274.634 202.159 273.761 202.333 272.88 202.333Z" fill="#EBEBEB"/>
<path d="M272.888 226.885H239.68C235.975 226.885 232.972 229.888 232.972 233.593V233.601C232.972 237.306 235.975 240.309 239.68 240.309H272.888C276.593 240.309 279.596 237.306 279.596 233.601V233.593C279.596 229.888 276.593 226.885 272.888 226.885Z" fill="#E0E0E0"/>
<path d="M59.8813 291.951C53.8173 294.081 45.828 292.178 40.613 288.366C35.3979 284.553 31.6458 279.103 28.3258 273.569C26.9008 271.205 25.5212 268.749 25.0664 265.989C24.6116 263.23 25.2786 260.214 27.3859 258.409C30.668 255.65 35.7239 257.045 39.4078 259.167C45.2149 262.554 50.1118 267.301 53.6771 273C57.2423 278.699 59.3689 285.179 59.8738 291.883" fill="#CFD8DC"/>
<path d="M53.3249 306.543C49.6638 311.371 43.3724 313.524 37.3235 313.804C31.2747 314.085 25.2865 312.41 19.6242 310.234C17.57 309.476 15.3264 308.37 14.6214 306.285C14.3993 305.48 14.3813 304.632 14.5693 303.818C14.7572 303.004 15.1451 302.25 15.6978 301.623C16.8181 300.383 18.219 299.429 19.7834 298.842C25.3471 296.469 31.7295 296.355 37.5888 297.879C43.4482 299.402 48.5722 302.791 53.3249 306.543Z" fill="#CFD8DC"/>
<path d="M59.9574 265.83C54.9167 265.936 51.0964 261.517 48.8073 257.014C45.6284 250.724 44.565 243.575 45.7753 236.632C46.2376 234.047 47.2079 231.273 49.5198 230.03C51.8317 228.787 54.9167 229.598 56.88 231.394C58.8432 233.19 59.912 235.753 60.67 238.292C63.3836 247.062 62.7999 257.136 59.912 265.83" fill="#CFD8DC"/>
<path d="M76.5572 293.746C67.9539 279.102 66.5213 261.152 71.5999 244.977C72.4261 242.354 73.98 239.345 76.7315 239.17C79.7635 238.973 81.6889 242.369 82.5302 245.303C85.4789 255.596 84.8497 266.527 84.1978 277.207C83.7961 283.794 81.5373 289.418 76.5572 293.746Z" fill="#CFD8DC"/>
<path d="M85.4873 299.766C87.0875 294.748 89.794 290.154 93.407 286.322C97.0201 282.489 101.448 279.517 106.363 277.625C108.637 276.768 111.555 276.276 113.253 278.027C114.951 279.778 114.413 282.575 113.344 284.75C111.608 288.207 108.796 290.981 105.991 293.649C103.444 296.075 100.799 298.508 97.5774 299.918C94.3559 301.328 88.4283 301.691 85.4873 299.766Z" fill="#CFD8DC"/>
<path d="M32.1387 262.146C32.1828 262.198 32.2338 262.243 32.2903 262.282L32.7527 262.638L34.5567 263.987L35.868 264.958C36.338 265.322 36.8307 265.716 37.384 266.178C38.4452 267.065 39.7035 268.028 40.9694 269.21L43.0008 271.06C43.6982 271.704 44.3804 272.432 45.108 273.152C46.5862 274.577 48.0188 276.237 49.5651 277.95C52.81 281.773 55.7739 285.827 58.4337 290.078C61.037 294.357 63.3295 298.818 65.2936 303.426C66.135 305.571 66.9839 307.595 67.5676 309.558C67.886 310.536 68.2346 311.461 68.4999 312.378L69.2579 315.016C69.7658 316.691 70.0614 318.245 70.3798 319.564C70.5314 320.239 70.6906 320.868 70.8043 321.451C70.918 322.035 71.0013 322.573 71.0847 323.051C71.2515 323.991 71.3879 324.734 71.4865 325.272L71.6002 325.848C71.6049 325.914 71.623 325.978 71.6532 326.037C71.6618 325.972 71.6618 325.906 71.6532 325.84C71.6532 325.689 71.6077 325.492 71.5774 325.257C71.5016 324.718 71.3955 323.968 71.2515 323.028C71.1833 322.543 71.0999 322.005 71.0089 321.414C70.918 320.822 70.7588 320.201 70.6223 319.519C70.3191 318.162 70.0463 316.593 69.5536 314.917C69.3186 314.069 69.0836 313.182 68.7956 312.257C68.5075 311.332 68.1967 310.4 67.8784 309.422C67.2796 307.451 66.4458 305.412 65.6044 303.252C63.6676 298.616 61.3872 294.131 58.7824 289.835C56.1113 285.574 53.124 281.52 49.8456 277.707C48.3296 275.994 46.8136 274.334 45.343 272.917C44.585 272.197 43.9256 271.469 43.213 270.832L41.1589 268.998C39.8779 267.808 38.6044 266.86 37.5205 265.966C36.9747 265.541 36.4744 265.124 36.0045 264.768L34.6704 263.828L32.8209 262.54L32.3358 262.214C32.1993 262.176 32.1463 262.138 32.1387 262.146Z" fill="#263238"/>
<path d="M20.7461 302.738C20.9463 302.728 21.1447 302.695 21.3373 302.639C21.7239 302.571 22.2773 302.427 23.0125 302.306C25.0703 301.915 27.1518 301.662 29.2433 301.548C36.1565 301.158 43.0692 302.321 49.4743 304.951C55.8566 307.639 61.5551 311.724 66.1503 316.905C67.5412 318.471 68.8275 320.127 70.0009 321.862C70.4254 322.469 70.7135 322.969 70.9408 323.287C71.0452 323.458 71.1591 323.622 71.282 323.78C71.2087 323.594 71.1173 323.417 71.0091 323.249C70.8044 322.908 70.5391 322.393 70.1298 321.771C68.9921 319.995 67.7253 318.305 66.3398 316.715C61.7843 311.419 56.0525 307.263 49.603 304.58C43.1535 301.896 36.1654 300.759 29.1978 301.26C27.0991 301.403 25.0139 301.702 22.9595 302.154C22.2015 302.298 21.6784 302.473 21.2919 302.571C20.9053 302.67 20.7461 302.73 20.7461 302.738Z" fill="#263238"/>
<path d="M52.5212 235.873C52.5125 235.949 52.5125 236.025 52.5212 236.1L52.6576 236.76C52.7865 237.366 52.976 238.208 53.2185 239.284C53.7188 241.467 54.4692 244.628 55.4243 248.524C57.3193 256.316 60.0709 267.05 62.9437 278.943C64.3687 284.9 65.6573 290.585 66.7337 295.763C67.81 300.94 68.7575 305.617 69.4473 309.589C69.8187 311.552 70.0992 313.379 70.3645 314.895C70.6298 316.411 70.842 317.82 71.0012 318.927C71.1604 320.034 71.3044 320.868 71.403 321.482C71.4484 321.754 71.4863 321.974 71.5167 322.141C71.5217 322.219 71.5396 322.296 71.5697 322.368C71.5782 322.293 71.5782 322.217 71.5697 322.141C71.5697 321.967 71.5242 321.747 71.4939 321.466L71.2514 318.927C71.1149 317.813 70.9254 316.456 70.6753 314.879C70.4251 313.303 70.175 311.514 69.8187 309.535C69.1669 305.579 68.3027 300.887 67.1885 295.687C66.0742 290.487 64.8159 284.81 63.3985 278.852C60.5257 266.951 57.7286 256.233 55.7578 248.456C54.78 244.59 53.9917 241.444 53.4308 239.246C53.1655 238.177 52.9457 237.344 52.7941 236.745C52.7258 236.472 52.6652 236.26 52.6197 236.093C52.594 236.017 52.561 235.943 52.5212 235.873Z" fill="#263238"/>
<path d="M72.2826 321.21C72.3061 321.154 72.3238 321.095 72.3357 321.036C72.3357 320.892 72.4039 320.717 72.457 320.505C72.5555 320.012 72.6995 319.33 72.8814 318.466C73.2453 316.7 73.7228 314.13 74.2762 310.939C75.3828 304.572 76.6866 295.718 77.4901 285.88C77.8842 280.96 78.0965 276.261 78.195 271.985C78.2936 267.71 78.195 263.852 78.0965 260.615C78.0965 259.001 77.9449 257.538 77.8767 256.257C77.8084 254.976 77.7251 253.869 77.6417 252.967C77.5583 252.065 77.4977 251.406 77.4446 250.898C77.4446 250.678 77.4446 250.504 77.384 250.36C77.3919 250.299 77.3919 250.238 77.384 250.178C77.3756 250.238 77.3756 250.299 77.384 250.36C77.384 250.511 77.384 250.686 77.384 250.905C77.384 251.413 77.4446 252.103 77.4977 252.982C77.5507 253.862 77.6189 254.983 77.6644 256.272C77.7099 257.561 77.8009 259.008 77.8236 260.623C77.9221 263.852 77.9297 267.703 77.8236 271.993C77.7175 276.283 77.4749 280.953 77.0656 285.864C76.2621 295.718 75.0038 304.534 73.973 310.878C73.4575 314.07 73.0179 316.647 72.6995 318.458C72.5555 319.323 72.4342 319.974 72.3508 320.505C72.3508 320.725 72.2902 320.899 72.2675 321.043C72.2625 321.099 72.2676 321.156 72.2826 321.21Z" fill="#263238"/>
<path d="M71.6455 323.074C71.7313 322.911 71.8048 322.741 71.8653 322.566L72.4338 321.096L72.8356 320.027C73.0099 319.648 73.1918 319.231 73.3889 318.791C73.586 318.352 73.7982 317.874 74.0181 317.366C74.2379 316.859 74.5335 316.358 74.7761 315.813L75.6553 314.099L76.7014 312.303C77.3912 311.045 78.2856 309.786 79.1421 308.422C81.1558 305.55 83.3296 302.794 85.6533 300.167C88.0033 297.561 90.4852 295.076 93.0893 292.724C94.3324 291.678 95.4619 290.639 96.6064 289.76L98.2362 288.464L99.7522 287.327C100.722 286.569 101.647 285.962 102.451 285.424C103.254 284.886 103.967 284.409 104.535 284.06L105.869 283.211C106.031 283.121 106.184 283.014 106.324 282.893C106.152 282.959 105.987 283.043 105.831 283.143L104.459 283.901C103.853 284.234 103.14 284.659 102.329 285.212C101.518 285.765 100.571 286.341 99.5854 287.069L98.0163 288.191L96.3639 289.48C95.2117 290.344 94.0899 291.382 92.8164 292.421C90.1846 294.767 87.682 297.254 85.3198 299.872C82.9936 302.518 80.8294 305.302 78.8389 308.21C77.9748 309.589 77.088 310.855 76.4058 312.136L75.3749 313.955L74.5183 315.684C74.253 316.237 73.9726 316.752 73.7603 317.26C73.5481 317.768 73.3434 318.253 73.1539 318.701C72.9644 319.148 72.7901 319.572 72.6309 319.959C72.4717 320.345 72.3656 320.717 72.2519 321.043C72.0473 321.657 71.8881 322.157 71.7592 322.559C71.704 322.726 71.6659 322.899 71.6455 323.074Z" fill="#263238"/>
<path d="M35.3301 279.133C35.3301 279.194 36.3761 279.194 38.0513 279.293C40.2306 279.407 42.4004 279.66 44.5474 280.051C46.6901 280.466 48.8042 281.018 50.8767 281.703C51.7234 282.029 52.5861 282.313 53.4614 282.552C53.2651 282.405 53.048 282.287 52.8171 282.203C52.3927 281.999 51.7635 281.733 50.9676 281.445C48.9055 280.687 46.7832 280.104 44.6232 279.702C42.4584 279.29 40.2622 279.064 38.0589 279.027C37.2175 279.027 36.5429 279.027 36.0578 279.065C35.8131 279.051 35.5677 279.074 35.3301 279.133Z" fill="#263238"/>
<path d="M28.8418 310.832C29.7838 308.9 30.9738 307.098 32.3817 305.473C34.7921 302.843 37.5209 301.683 37.4451 301.547C36.8295 301.712 36.2419 301.967 35.7017 302.305C34.3604 303.081 33.1419 304.051 32.086 305.185C31.0336 306.311 30.1571 307.588 29.4861 308.975C29.1676 309.553 28.9497 310.181 28.8418 310.832Z" fill="#263238"/>
<path d="M50.9748 247.768C50.8914 247.851 52.4908 249.42 54.2039 251.558C55.917 253.695 57.1601 255.545 57.2359 255.484C56.5272 253.965 55.603 252.555 54.4919 251.3C53.4958 249.959 52.3111 248.77 50.9748 247.768Z" fill="#263238"/>
<path d="M56.1751 238.77C55.5147 241.002 55.1228 243.305 55.0078 245.629C55.386 244.529 55.6403 243.39 55.7658 242.234C56.0344 241.098 56.1717 239.936 56.1751 238.77Z" fill="#263238"/>
<path d="M72.2676 266.959C72.9864 268.782 73.8272 270.555 74.7841 272.265C75.6265 274.032 76.5889 275.739 77.6645 277.374C76.9478 275.55 76.107 273.777 75.148 272.068C74.3056 270.301 73.3432 268.594 72.2676 266.959Z" fill="#263238"/>
<path d="M81.8637 257.393C81.0367 258.604 80.3212 259.888 79.7261 261.228C79.0135 262.507 78.4223 263.849 77.96 265.238C78.7872 264.031 79.5003 262.749 80.0899 261.41C80.8053 260.129 81.3991 258.784 81.8637 257.393Z" fill="#263238"/>
<path d="M95.9248 290.102C95.9248 290.216 97.6606 289.89 99.7906 289.738C101.921 289.587 103.664 289.67 103.672 289.556C102.394 289.25 101.072 289.176 99.7679 289.336C98.4522 289.367 97.1519 289.626 95.9248 290.102Z" fill="#263238"/>
<path d="M86.3135 319.02L81.5229 344.208C81.3693 345.016 80.9385 345.745 80.3047 346.27C79.6709 346.794 78.8739 347.081 78.0513 347.081H63.907C63.0708 347.081 62.2615 346.786 61.6231 346.246C60.9846 345.706 60.5584 344.957 60.4202 344.132L56.2588 319.02H86.3135Z" fill="#263238"/>
<path d="M84.7596 327.206H57.6914L56.2588 319.02H86.3135L84.7596 327.206Z" fill="#455A64"/>
<path d="M84.7596 327.205L84.1911 330.192H58.1083L57.6914 327.205H84.7596Z" fill="#FAFAFA"/>
<path d="M293.475 324.288L294.074 338.963C294.074 338.963 279.354 344.504 279.202 347.225L307.703 347.088V324.182L293.475 324.288Z" fill="#263238"/>
<path d="M302.882 337.688C303.157 337.771 303.391 337.952 303.541 338.197C303.691 338.441 303.745 338.732 303.693 339.014C303.618 339.291 303.441 339.528 303.198 339.679C302.954 339.829 302.663 339.882 302.382 339.826C302.092 339.739 301.844 339.547 301.687 339.288C301.53 339.029 301.475 338.721 301.533 338.423C301.636 338.14 301.846 337.908 302.118 337.777C302.391 337.647 302.703 337.628 302.989 337.726" fill="#E0E0E0"/>
<path d="M307.703 347.087L307.612 344.812L280.324 345.805C280.324 345.805 279.058 346.366 279.202 347.261L307.703 347.087Z" fill="#455A64"/>
<path d="M293.612 338.825C293.612 338.961 294.309 339.022 294.999 339.461C295.689 339.901 296.053 340.492 296.182 340.439C296.311 340.386 296.098 339.575 295.257 339.052C294.416 338.529 293.582 338.696 293.612 338.825Z" fill="white"/>
<path d="M290.625 340.069C290.625 340.205 291.201 340.44 291.679 341.024C292.156 341.607 292.293 342.237 292.437 342.229C292.581 342.221 292.656 341.433 292.058 340.713C291.459 339.993 290.633 339.94 290.625 340.069Z" fill="white"/>
<path d="M288.95 343.655C289.071 343.655 289.261 342.987 288.905 342.229C288.548 341.471 287.889 341.168 287.828 341.29C287.768 341.411 288.177 341.805 288.465 342.434C288.753 343.063 288.799 343.647 288.95 343.655Z" fill="white"/>
<path d="M293.846 335.459C293.907 335.588 294.544 335.391 295.362 335.459C296.181 335.527 296.757 335.755 296.833 335.634C296.909 335.512 296.31 335.02 295.385 334.974C294.46 334.929 293.778 335.353 293.846 335.459Z" fill="white"/>
<path d="M337.311 327.704L341.01 345.085L339.971 359.677C339.953 359.926 339.987 360.176 340.07 360.411C340.153 360.646 340.284 360.862 340.454 361.045C340.623 361.227 340.829 361.373 341.058 361.473C341.286 361.573 341.533 361.625 341.783 361.625C342.072 361.625 342.356 361.556 342.613 361.425C342.87 361.293 343.092 361.102 343.261 360.867C345.444 357.835 353.418 346.518 353.115 345.26C352.713 343.804 350.432 326.666 350.432 326.666L337.311 327.704Z" fill="#263238"/>
<path d="M341.775 361.626L352.842 344.078L352.986 344.836C353.109 345.475 352.999 346.137 352.675 346.701C351.811 348.217 349.34 352.34 343.307 360.875C343.134 361.115 342.906 361.31 342.642 361.442C342.378 361.574 342.086 361.64 341.791 361.633L341.775 361.626Z" fill="#455A64"/>
<g opacity="0.6">
<path d="M348.196 339.121C348.015 339.323 347.916 339.585 347.916 339.856C347.916 340.127 348.015 340.389 348.196 340.591C348.387 340.785 348.646 340.898 348.918 340.907C349.19 340.915 349.455 340.819 349.659 340.637C349.851 340.423 349.958 340.144 349.958 339.856C349.958 339.568 349.851 339.29 349.659 339.075C349.437 338.899 349.157 338.814 348.875 338.838C348.593 338.862 348.331 338.993 348.143 339.204" fill="white"/>
</g>
<path d="M344.322 353.227C343.797 352.763 343.19 352.4 342.533 352.158C341.844 352.031 341.137 352.031 340.448 352.158C340.448 352.12 340.623 351.946 341.024 351.809C341.551 351.655 342.112 351.655 342.639 351.809C343.17 351.955 343.649 352.25 344.018 352.658C344.284 352.969 344.36 353.227 344.322 353.227Z" fill="white"/>
<path d="M343.519 355.811C342.964 355.629 342.4 355.477 341.828 355.357C341.246 355.36 340.664 355.392 340.085 355.455C340.599 355.078 341.236 354.905 341.871 354.971C342.505 355.037 343.093 355.336 343.519 355.811Z" fill="white"/>
<path d="M346.073 349.809C344.455 348.969 342.626 348.621 340.812 348.808C341.694 348.458 342.657 348.366 343.588 348.543C344.52 348.72 345.382 349.159 346.073 349.809Z" fill="white"/>
<path d="M345.391 344.428C345.391 344.541 344.322 344.322 343.056 344.519C341.79 344.716 340.858 345.193 340.782 345.095C341.417 344.581 342.179 344.249 342.987 344.131C343.796 344.014 344.621 344.116 345.376 344.428H345.391Z" fill="white"/>
<path d="M344.436 339.302C343.629 339.188 342.81 339.188 342.003 339.302C341.225 339.539 340.483 339.881 339.797 340.318C339.797 340.318 339.911 340.03 340.267 339.727C340.745 339.33 341.312 339.054 341.919 338.923C342.522 338.781 343.15 338.781 343.754 338.923C344.208 339.09 344.451 339.257 344.436 339.302Z" fill="white"/>
<path d="M341.859 338.341C341.76 338.137 341.709 337.915 341.707 337.689C341.652 337.07 341.719 336.447 341.904 335.855C342.006 335.413 342.248 335.017 342.594 334.725C342.719 334.642 342.865 334.598 343.015 334.598C343.164 334.598 343.311 334.642 343.435 334.725C343.669 334.914 343.821 335.185 343.86 335.483C343.93 336.076 343.792 336.676 343.468 337.178C343.144 337.68 342.656 338.054 342.086 338.235C341.52 338.404 340.916 338.401 340.352 338.225C339.787 338.05 339.288 337.71 338.918 337.249C338.824 337.132 338.757 336.997 338.72 336.852C338.684 336.706 338.679 336.555 338.705 336.408C338.754 336.267 338.844 336.144 338.962 336.053C339.081 335.963 339.224 335.91 339.373 335.9C339.821 335.911 340.258 336.042 340.638 336.279C341.183 336.569 341.673 336.951 342.086 337.408C342.251 337.565 342.383 337.753 342.473 337.962C341.892 337.391 341.234 336.906 340.517 336.522C340.174 336.335 339.793 336.231 339.403 336.218C339.32 336.22 339.24 336.248 339.175 336.299C339.109 336.349 339.062 336.419 339.039 336.499C339.029 336.596 339.039 336.694 339.069 336.786C339.099 336.879 339.148 336.964 339.213 337.037C339.545 337.426 339.982 337.711 340.471 337.857C340.96 338.004 341.482 338.006 341.972 337.863C342.445 337.698 342.85 337.381 343.125 336.961C343.399 336.542 343.527 336.043 343.488 335.544C343.462 335.341 343.362 335.155 343.208 335.021C343.141 334.971 343.06 334.944 342.977 334.944C342.894 334.944 342.812 334.971 342.746 335.021C342.453 335.267 342.244 335.598 342.147 335.968C341.916 336.737 341.818 337.539 341.859 338.341Z" fill="white"/>
<path d="M282.984 204.94C282.984 204.94 282.863 212.672 283.378 222.655C283.575 226.521 291.716 333.975 291.716 333.975L309.287 334.414L306.869 233.987L309.901 234.745C309.901 234.745 319.156 268.233 321.172 275.897C323.567 284.993 336.461 336.703 336.461 336.703L352.523 337.295L341.957 276.723L332.838 219.062L331.011 202.295L282.984 204.94Z" fill="#455A64"/>
<path d="M309.901 223.829C309.665 223.99 309.41 224.122 309.143 224.223C308.447 224.554 307.711 224.791 306.952 224.928C306.416 225.025 305.867 225.025 305.33 224.928C304.701 224.81 304.12 224.512 303.655 224.071C303.177 223.56 302.841 222.933 302.677 222.252C302.488 221.562 302.389 220.85 302.26 220.13C301.768 217.219 301.457 214.566 301.283 212.641C301.199 211.678 301.146 210.897 301.116 210.367C301.086 210.087 301.086 209.805 301.116 209.525C301.198 209.794 301.246 210.071 301.26 210.352C301.336 210.966 301.434 211.724 301.548 212.626C301.783 214.543 302.139 217.174 302.624 220.077C302.874 221.517 303.034 222.972 303.898 223.867C304.307 224.228 304.791 224.494 305.315 224.644C305.84 224.795 306.391 224.827 306.93 224.738C307.674 224.625 308.404 224.429 309.105 224.155C309.356 224.015 309.624 223.905 309.901 223.829Z" fill="#263238"/>
<path d="M304.951 210.087C304.951 210.087 305.065 210.003 305.315 209.988C305.667 209.993 306.008 210.113 306.285 210.329C306.501 210.49 306.678 210.698 306.801 210.937C306.925 211.176 306.992 211.44 306.998 211.709C306.969 212.047 306.842 212.37 306.633 212.638C306.424 212.906 306.142 213.107 305.82 213.217C305.499 213.327 305.152 213.341 304.823 213.258C304.494 213.175 304.196 212.997 303.966 212.747C303.805 212.533 303.695 212.286 303.644 212.023C303.593 211.761 303.602 211.49 303.67 211.231C303.749 210.884 303.947 210.575 304.231 210.36C304.428 210.208 304.564 210.193 304.572 210.208C304.247 210.488 304.021 210.866 303.928 211.284C303.885 211.501 303.889 211.725 303.942 211.94C303.994 212.154 304.093 212.355 304.231 212.528C304.413 212.718 304.649 212.85 304.907 212.905C305.165 212.961 305.434 212.937 305.679 212.838C305.932 212.766 306.157 212.619 306.325 212.416C306.493 212.213 306.595 211.964 306.619 211.701C306.621 211.48 306.574 211.261 306.483 211.059C306.391 210.857 306.256 210.678 306.088 210.534C305.764 210.271 305.367 210.115 304.951 210.087Z" fill="#263238"/>
<path d="M332.618 218.022C332.425 218.084 332.222 218.112 332.019 218.106C331.469 218.142 330.917 218.142 330.367 218.106C326.712 217.786 323.277 216.223 320.634 213.679C320.235 213.298 319.866 212.887 319.528 212.451C319.391 212.301 319.276 212.133 319.187 211.951C319.24 211.913 319.785 212.572 320.816 213.467C322.157 214.648 323.664 215.626 325.288 216.37C326.921 217.1 328.653 217.583 330.428 217.803C331.762 217.984 332.618 217.954 332.618 218.022Z" fill="#263238"/>
<path d="M290.072 210.042C289.9 210.65 289.666 211.24 289.375 211.801C288.754 213.113 287.992 214.354 287.101 215.5C286.285 216.565 285.338 217.523 284.281 218.35C283.888 218.694 283.443 218.973 282.962 219.176C283.348 218.804 283.756 218.455 284.182 218.13C285.187 217.255 286.106 216.285 286.926 215.234C287.784 214.108 288.545 212.911 289.2 211.657C289.746 210.664 290.034 210.012 290.072 210.042Z" fill="#263238"/>
<path d="M300.168 98.9871C300.435 95.5685 301.979 92.3757 304.493 90.0441C307.008 87.7124 310.308 86.413 313.737 86.4043H314.441C322.059 86.8288 325.956 93.5371 325.319 101.14L323.666 124.782L310.091 138.896L306.619 130.459V124.842C306.619 124.842 299.297 123.721 299.183 116.406C299.168 112.866 299.653 105.574 300.168 98.9871Z" fill="#FFBE9D"/>
<path d="M306.597 124.834C309.994 124.836 313.322 123.866 316.185 122.037C316.185 122.037 313.911 127.343 306.635 126.668L306.597 124.834Z" fill="#EB996E"/>
<path d="M302.124 105.089C302.124 105.36 302.229 105.621 302.417 105.816C302.605 106.011 302.861 106.125 303.132 106.135C303.265 106.145 303.398 106.129 303.525 106.087C303.651 106.045 303.768 105.979 303.868 105.891C303.968 105.804 304.05 105.697 304.108 105.578C304.167 105.458 304.201 105.328 304.209 105.195C304.213 104.922 304.109 104.659 303.921 104.462C303.732 104.265 303.473 104.15 303.2 104.142C303.067 104.131 302.933 104.148 302.806 104.19C302.68 104.233 302.563 104.3 302.462 104.388C302.362 104.477 302.28 104.584 302.222 104.704C302.164 104.825 302.131 104.956 302.124 105.089Z" fill="#263238"/>
<path d="M301.745 102.564C301.881 102.701 302.67 102.109 303.792 102.109C304.913 102.109 305.747 102.67 305.869 102.534C305.99 102.397 305.793 102.223 305.436 101.965C304.95 101.626 304.369 101.448 303.776 101.457C303.191 101.456 302.62 101.642 302.147 101.988C301.798 102.253 301.684 102.503 301.745 102.564Z" fill="#263238"/>
<path d="M312.296 105.361C312.296 105.634 312.402 105.896 312.591 106.093C312.78 106.289 313.039 106.404 313.312 106.414C313.445 106.423 313.578 106.406 313.705 106.364C313.831 106.321 313.948 106.253 314.048 106.165C314.148 106.077 314.229 105.97 314.288 105.85C314.346 105.73 314.38 105.6 314.388 105.467C314.388 105.194 314.282 104.931 314.093 104.735C313.903 104.538 313.645 104.423 313.372 104.413C313.239 104.403 313.105 104.419 312.978 104.462C312.851 104.504 312.734 104.571 312.634 104.66C312.534 104.748 312.452 104.856 312.394 104.976C312.336 105.096 312.303 105.227 312.296 105.361Z" fill="#263238"/>
<path d="M312.804 102.738C312.94 102.874 313.729 102.291 314.851 102.291C315.972 102.291 316.806 102.844 316.928 102.708C317.049 102.571 316.852 102.404 316.496 102.139C316.007 101.806 315.427 101.631 314.835 101.639C314.249 101.636 313.678 101.822 313.206 102.17C312.865 102.435 312.743 102.677 312.804 102.738Z" fill="#263238"/>
<path d="M308.749 111.1C308.158 110.91 307.543 110.801 306.923 110.774C306.634 110.774 306.362 110.683 306.309 110.493C306.286 110.195 306.352 109.897 306.498 109.637L307.347 107.446C308.514 104.331 309.363 101.769 309.234 101.723C309.106 101.678 308.06 104.164 306.885 107.279C306.604 108.037 306.339 108.795 306.081 109.485C305.901 109.833 305.85 110.233 305.937 110.615C305.978 110.715 306.042 110.805 306.124 110.878C306.205 110.95 306.302 111.003 306.407 111.032C306.566 111.073 306.728 111.096 306.892 111.1C307.509 111.177 308.133 111.177 308.749 111.1Z" fill="#263238"/>
<path d="M312.061 111.865C311.879 111.865 311.879 113.078 310.833 113.942C309.787 114.806 308.491 114.7 308.484 114.859C308.476 115.019 308.772 115.094 309.325 115.102C310.041 115.116 310.738 114.871 311.288 114.412C311.819 113.977 312.16 113.351 312.236 112.669C312.296 112.184 312.145 111.858 312.061 111.865Z" fill="#263238"/>
<path d="M312.508 98.3342C312.614 98.6374 313.736 98.4858 315.063 98.645C316.389 98.8041 317.45 99.1604 317.625 98.8799C317.7 98.7511 317.511 98.463 317.086 98.1674C316.51 97.8056 315.859 97.58 315.183 97.5077C314.506 97.4355 313.822 97.5185 313.183 97.7505C312.698 97.9476 312.455 98.1901 312.508 98.3342Z" fill="#263238"/>
<path d="M302.154 99.2971C302.351 99.5548 303.124 99.2971 304.056 99.2971C304.989 99.2971 305.777 99.4638 305.959 99.1985C306.042 99.0697 305.914 98.812 305.565 98.5694C305.113 98.2827 304.584 98.1399 304.049 98.1601C303.502 98.1686 302.972 98.349 302.533 98.6755C302.169 98.9181 302.063 99.1758 302.154 99.2971Z" fill="#263238"/>
<path d="M297.454 92.5814C297.51 92.2455 297.686 91.9415 297.95 91.7264C298.213 91.5114 298.547 91.4003 298.887 91.4141C298.531 91.3239 298.195 91.1698 297.894 90.9593C297.743 90.8419 297.627 90.6847 297.56 90.5053C297.493 90.3259 297.478 90.1314 297.515 89.9436C297.689 89.3751 298.409 89.2386 298.978 89.0567C299.726 88.8228 300.381 88.3585 300.85 87.7302C301.525 86.8358 301.76 85.6836 302.328 84.6982C302.702 84.0724 303.211 83.5384 303.818 83.1357C304.425 82.7329 305.115 82.4717 305.837 82.3713C306.559 82.2709 307.294 82.3339 307.988 82.5556C308.682 82.7773 309.318 83.152 309.848 83.6522C310.393 83.0585 311.072 82.6036 311.828 82.3253C312.585 82.0469 313.397 81.9531 314.196 82.0517C314.996 82.1503 315.761 82.4384 316.427 82.8922C317.094 83.3459 317.642 83.9521 318.026 84.6603C318.991 84.2247 320.055 84.0566 321.107 84.1738C322.159 84.291 323.16 84.6891 324.005 85.3263C324.85 85.9636 325.508 86.8165 325.91 87.7956C326.311 88.7747 326.442 89.8439 326.289 90.8911L321.816 93.8094C321.768 93.468 321.649 93.1405 321.466 92.8481C321.283 92.5557 321.041 92.305 320.755 92.112C320.47 91.9191 320.147 91.7884 319.807 91.7282C319.468 91.668 319.119 91.6798 318.784 91.7628C317.42 92.2024 316.586 93.817 315.161 93.9686C314.047 94.0823 313.077 93.2485 311.993 92.9907C310.638 92.7991 309.261 93.1385 308.15 93.9382C307.054 94.7334 305.859 95.3808 304.595 95.8636C303.035 96.2174 301.403 96.0688 299.933 95.4391C299.285 95.2309 298.69 94.8844 298.19 94.4234C297.926 94.1994 297.722 93.9146 297.594 93.5936C297.465 93.2725 297.418 92.9251 297.454 92.5814Z" fill="#263238"/>
<path d="M320.93 91.7179L300.055 92.1954C300.758 90.7792 301.799 89.5582 303.087 88.6404C305.799 86.5408 309.104 85.3499 312.531 85.237C315.935 85.1763 322.87 89.315 325.342 91.6572C327.312 93.5371 327.305 95.1668 327.305 95.1668C327.616 97.8729 326.107 100.95 325.501 103.603C325.198 104.975 324.599 109.122 324.599 109.122C323.447 109.122 323.022 108.204 323.189 107.067L323.401 102.603C322.249 101.687 321.428 100.419 321.066 98.9922C320.703 97.5656 320.818 96.0595 321.392 94.7044C321.673 94.2951 322.31 92.4759 320.93 91.7179Z" fill="#263238"/>
<path d="M323.758 102.26C324.72 98.5308 325.577 94.5437 324.349 90.8902L324.963 90.8447L325.228 91.0266C325.811 90.81 326.448 90.7852 327.046 90.9558C327.644 91.1264 328.171 91.4835 328.552 91.9751C328.933 92.4666 329.147 93.067 329.162 93.6885C329.178 94.3101 328.995 94.9205 328.639 95.4306C329.259 95.4064 329.867 95.6107 330.346 96.0047C330.825 96.3988 331.143 96.9551 331.239 97.5681C331.264 98.4267 331.054 99.2758 330.633 100.024C330.212 100.77 329.966 101.602 329.913 102.457C329.898 102.885 330.034 103.305 330.297 103.643C330.56 103.982 330.934 104.216 331.353 104.307C331.161 104.746 330.825 105.105 330.4 105.326C329.975 105.547 329.487 105.615 329.018 105.52C329.347 106.239 329.873 106.851 330.534 107.286C329.2 108.248 327.328 107.991 325.827 107.286C324.903 106.944 324.137 106.275 323.674 105.406C323.366 104.375 323.395 103.273 323.758 102.26Z" fill="#263238"/>
<path d="M324.22 106.559C324.348 106.506 329.253 105.043 329.101 110.061C328.949 115.079 323.962 113.889 323.954 113.745C323.947 113.601 324.22 106.559 324.22 106.559Z" fill="#FFBE9D"/>
<path d="M325.099 111.895C325.099 111.895 325.19 111.955 325.334 112.031C325.543 112.115 325.776 112.115 325.985 112.031C326.313 111.833 326.583 111.552 326.768 111.217C326.953 110.882 327.046 110.504 327.039 110.121C327.062 109.694 326.989 109.266 326.827 108.87C326.786 108.713 326.707 108.568 326.598 108.448C326.488 108.327 326.351 108.236 326.198 108.181C326.099 108.151 325.992 108.157 325.897 108.197C325.801 108.237 325.723 108.309 325.675 108.4C325.599 108.544 325.629 108.643 325.606 108.651C325.584 108.658 325.5 108.56 325.546 108.355C325.576 108.233 325.648 108.125 325.75 108.052C325.819 108 325.898 107.964 325.981 107.944C326.065 107.925 326.151 107.922 326.236 107.938C326.44 107.985 326.629 108.083 326.784 108.224C326.94 108.364 327.056 108.543 327.122 108.742C327.326 109.18 327.417 109.662 327.388 110.144C327.398 110.589 327.277 111.028 327.04 111.405C326.802 111.783 326.46 112.082 326.054 112.266C325.924 112.296 325.789 112.298 325.658 112.272C325.528 112.246 325.404 112.192 325.296 112.115C325.106 112.016 325.083 111.902 325.099 111.895Z" fill="#EB996E"/>
<path d="M329.29 102.261C329.29 102.261 329.427 102.072 329.366 101.678C329.309 101.407 329.192 101.152 329.025 100.931C328.857 100.711 328.642 100.531 328.396 100.404C327.679 100.089 326.905 99.9238 326.122 99.919C325.677 99.9324 325.235 99.8397 324.833 99.6486C324.431 99.4574 324.08 99.1734 323.81 98.8199C323.371 98.0259 323.206 97.1095 323.34 96.2123C323.438 95.371 323.636 94.5978 323.727 93.9383C323.908 93.2325 323.876 92.4887 323.636 91.8008C323.654 92.5024 323.596 93.204 323.461 93.8929C323.332 94.5372 323.105 95.28 322.984 96.1669C322.819 97.151 322.996 98.1619 323.484 99.0321C323.775 99.4791 324.203 99.8196 324.704 100.002C325.152 100.157 325.619 100.246 326.092 100.268C326.846 100.253 327.597 100.379 328.305 100.639C328.526 100.745 328.724 100.894 328.886 101.078C329.049 101.261 329.174 101.476 329.252 101.708C329.282 101.891 329.295 102.076 329.29 102.261Z" fill="#455A64"/>
<path d="M330.435 100.056C330.435 100.056 330.541 99.9121 330.579 99.6013C330.605 99.2237 330.535 98.8457 330.378 98.5015C330.22 98.1574 329.98 97.858 329.677 97.6305C329.387 97.4226 329.056 97.278 328.707 97.206C328.368 97.1462 328.044 97.0227 327.752 96.8422C327.62 96.7324 327.515 96.5943 327.444 96.4381C327.373 96.2819 327.338 96.1116 327.342 95.9402C327.342 95.5612 327.342 95.1822 327.342 94.7577C327.301 93.7267 326.982 92.7261 326.418 91.8621C326.3 91.665 326.135 91.5001 325.938 91.3824C325.741 91.2647 325.518 91.1977 325.288 91.1875C324.962 91.1875 324.826 91.3543 324.841 91.3618C324.856 91.3694 325.008 91.3012 325.281 91.3618C325.474 91.3959 325.657 91.4747 325.815 91.5918C325.973 91.7089 326.101 91.8611 326.19 92.0365C326.492 92.5629 326.709 93.1333 326.835 93.7268C326.913 94.0778 326.956 94.4359 326.963 94.7956C326.963 95.1594 326.963 95.5536 326.963 95.9856C326.961 96.2134 327.011 96.4387 327.108 96.6447C327.205 96.8507 327.347 97.0322 327.524 97.1757C327.864 97.3796 328.24 97.516 328.631 97.5774C328.92 97.6192 329.198 97.7218 329.445 97.8786C329.692 98.0354 329.903 98.2428 330.064 98.487C330.345 98.9598 330.475 99.5074 330.435 100.056Z" fill="#455A64"/>
<path d="M300.82 87.7068C300.82 87.7068 301.199 87.9645 301.851 87.6386C302.212 87.4308 302.524 87.1492 302.768 86.8124C303.074 86.3879 303.457 86.0253 303.898 85.7436C304.477 85.4011 305.142 85.2326 305.814 85.2581C306.486 85.2836 307.137 85.5022 307.688 85.8876C308.317 86.3197 308.878 86.9336 309.613 87.4036C309.992 87.6731 310.423 87.8591 310.879 87.9494C311.362 88.0149 311.853 87.9521 312.304 87.7674C313.191 87.4188 313.888 86.8503 314.654 86.5471C315.394 86.2356 316.186 86.0684 316.988 86.0544C318.362 86.0185 319.708 86.4397 320.816 87.252C321.563 87.7984 322.19 88.4924 322.658 89.291C322.992 89.8671 323.113 90.2158 323.143 90.2006C323.174 90.1855 323.143 90.1097 323.083 89.9353C323.006 89.6905 322.91 89.4522 322.795 89.2228C322.359 88.3661 321.738 87.6176 320.976 87.0322C319.836 86.1489 318.43 85.6785 316.988 85.6981C316.138 85.701 315.297 85.8683 314.51 86.1908C313.684 86.5243 312.994 87.0928 312.16 87.4036C311.776 87.5678 311.353 87.6229 310.94 87.5628C310.538 87.4856 310.158 87.3227 309.825 87.0852C309.143 86.6229 308.567 86.0165 307.885 85.5692C307.242 85.118 306.471 84.8867 305.687 84.9098C305.006 84.9298 304.342 85.1284 303.761 85.4859C303.302 85.7931 302.91 86.1902 302.609 86.6532C302.392 86.9833 302.111 87.2667 301.783 87.487C301.497 87.6696 301.157 87.7473 300.82 87.7068Z" fill="#455A64"/>
<path d="M271.486 154.048L245.585 133.582L241.893 129.709C241.893 129.709 233.07 121.469 232.327 120.567C231.463 119.529 230.751 119.696 230.394 120.037C229.826 120.575 230.015 121.666 230.728 122.576C230.978 122.894 235.064 127.723 235.064 127.723C234.399 127.503 233.721 127.328 233.032 127.2C231.554 126.889 229.432 127.776 227.726 129.269C226.021 130.762 225.702 131.339 226.256 132.021C226.366 132.144 226.502 132.241 226.654 132.305C226.806 132.37 226.97 132.399 227.135 132.392C227.679 132.396 228.205 132.199 228.613 131.839C231.342 129.474 233.328 130.323 233.328 130.323L233.813 130.831C233.813 130.831 231.122 131.035 230.197 132.665C230.062 132.898 229.974 133.156 229.94 133.423C229.563 133.741 229.276 134.152 229.107 134.615C228.938 135.078 228.892 135.577 228.975 136.063C229.058 136.549 229.266 137.005 229.578 137.386C229.891 137.767 230.298 138.06 230.758 138.236C230.972 138.344 231.213 138.384 231.45 138.351C231.687 138.319 231.908 138.215 232.085 138.054C232.22 137.839 232.303 137.595 232.327 137.342C232.346 137.211 232.376 137.081 232.418 136.955L233.972 138.183C233.972 138.183 237.603 140.76 239.058 142.064L260.752 165.646C261.466 166.42 262.326 167.045 263.284 167.484C264.241 167.923 265.277 168.166 266.329 168.201C267.382 168.235 268.431 168.06 269.415 167.685C270.399 167.31 271.299 166.743 272.062 166.017C272.882 165.232 273.525 164.279 273.946 163.224C274.367 162.169 274.557 161.036 274.502 159.901C274.448 158.767 274.15 157.657 273.63 156.647C273.109 155.637 272.378 154.751 271.486 154.048Z" fill="#FFBE9D"/>
<path d="M244.508 133.914C244.275 134.168 243.969 134.343 243.632 134.415C243.296 134.487 242.945 134.452 242.628 134.316C241.976 134.096 241.423 133.656 240.786 133.391C238.899 132.588 236.587 133.391 234.722 132.482C234.457 132.36 234.184 132.125 234.245 131.845C234.306 131.564 234.624 131.489 234.882 131.443L241.575 130.162" fill="#FFBE9D"/>
<path d="M241.59 130.163C241.336 130.148 241.081 130.168 240.832 130.224C240.362 130.292 239.687 130.398 238.854 130.542L235.913 131.065L235.071 131.217C234.716 131.228 234.378 131.377 234.131 131.634C234.066 131.728 234.031 131.841 234.031 131.956C234.031 132.071 234.066 132.183 234.131 132.278C234.242 132.429 234.388 132.551 234.556 132.634C234.859 132.778 235.177 132.89 235.503 132.968C236.717 133.132 237.94 133.213 239.164 133.21C239.684 133.241 240.195 133.35 240.68 133.536C241.1 133.722 241.51 133.929 241.908 134.158C242.204 134.344 242.537 134.464 242.884 134.509C243.231 134.553 243.584 134.521 243.917 134.415C244.395 134.211 244.493 133.908 244.478 133.915C244.296 134.066 244.092 134.186 243.872 134.271C243.558 134.343 243.233 134.348 242.917 134.287C242.601 134.226 242.301 134.099 242.037 133.915C241.641 133.668 241.231 133.443 240.809 133.241C240.303 133.027 239.765 132.896 239.218 132.854C238.011 132.838 236.806 132.749 235.609 132.589C235.314 132.52 235.027 132.421 234.753 132.293C234.503 132.164 234.344 131.952 234.442 131.838C234.541 131.725 234.836 131.634 235.124 131.581L235.966 131.414L238.884 130.815C239.718 130.633 240.4 130.489 240.847 130.375C241.102 130.335 241.352 130.264 241.59 130.163Z" fill="#EB996E"/>
<path d="M233.912 130.807C233.599 130.506 233.224 130.278 232.813 130.14C232.362 130.026 231.887 130.057 231.456 130.231C230.923 130.455 230.427 130.759 229.985 131.133C229.531 131.523 229.039 131.866 228.515 132.156C228.072 132.398 227.571 132.516 227.067 132.497C226.894 132.489 226.725 132.441 226.574 132.357C226.423 132.273 226.293 132.155 226.195 132.012C226.119 131.911 226.074 131.79 226.066 131.664C226.066 131.664 226.135 131.777 226.271 131.952C226.372 132.068 226.496 132.162 226.636 132.226C226.776 132.29 226.928 132.323 227.082 132.323C227.549 132.314 228.005 132.186 228.409 131.952C228.913 131.657 229.39 131.317 229.834 130.936C230.287 130.55 230.799 130.238 231.35 130.011C231.836 129.825 232.371 129.812 232.866 129.973C233.185 130.079 233.474 130.261 233.707 130.504C233.874 130.686 233.927 130.799 233.912 130.807Z" fill="#EB996E"/>
<path d="M230.433 122.219C230.733 122.512 231.007 122.832 231.251 123.174L233.161 125.524L235.109 127.843C235.388 128.151 235.641 128.481 235.867 128.829C235.532 128.574 235.224 128.285 234.95 127.964C234.412 127.396 233.7 126.6 232.942 125.69C232.184 124.781 231.532 123.924 231.077 123.288C230.821 122.957 230.605 122.599 230.433 122.219Z" fill="#EB996E"/>
<path d="M233.73 132.823C233.611 132.877 233.486 132.917 233.358 132.944C233.197 132.984 233.047 133.058 232.916 133.159C232.786 133.261 232.678 133.389 232.6 133.535C232.561 133.636 232.548 133.746 232.562 133.853C232.577 133.961 232.619 134.063 232.684 134.149C232.851 134.364 233.042 134.56 233.252 134.733C233.525 134.949 233.711 135.256 233.775 135.597C233.786 135.785 233.754 135.974 233.68 136.147C233.607 136.321 233.494 136.475 233.351 136.598C233.209 136.716 233.044 136.804 232.867 136.856C232.689 136.909 232.503 136.924 232.32 136.901C231.98 136.871 231.658 136.739 231.395 136.522C230.997 136.154 230.655 135.73 230.379 135.264C230.185 134.953 230.041 134.612 229.955 134.256C229.909 133.998 229.955 133.854 229.955 133.854C229.955 133.854 229.955 133.998 230.046 134.233C230.159 134.565 230.32 134.879 230.523 135.165C230.805 135.603 231.144 136.001 231.531 136.348C231.761 136.538 232.046 136.647 232.344 136.658C232.641 136.669 232.934 136.581 233.176 136.408C233.287 136.316 233.375 136.2 233.434 136.069C233.493 135.937 233.522 135.794 233.517 135.65C233.466 135.368 233.312 135.114 233.085 134.938C232.863 134.747 232.667 134.527 232.502 134.286C232.421 134.171 232.372 134.037 232.36 133.897C232.348 133.757 232.374 133.617 232.433 133.49C232.526 133.324 232.657 133.182 232.815 133.077C232.973 132.972 233.154 132.905 233.343 132.884C233.467 132.839 233.598 132.818 233.73 132.823Z" fill="#EB996E"/>
<path d="M232.252 136.69C232.252 136.69 232.373 136.759 232.456 136.986C232.507 137.149 232.52 137.321 232.493 137.489C232.467 137.657 232.402 137.817 232.305 137.956C232.149 138.157 231.943 138.314 231.707 138.411C231.472 138.508 231.216 138.542 230.963 138.51C230.365 138.419 229.823 138.105 229.447 137.63C229.06 137.164 228.827 136.59 228.78 135.985C228.754 135.577 228.819 135.169 228.969 134.789C229.12 134.408 229.353 134.066 229.652 133.787C229.826 133.636 229.94 133.575 229.947 133.59C229.658 133.902 229.415 134.254 229.227 134.636C229.028 135.099 228.96 135.609 229.032 136.108C229.105 136.607 229.314 137.076 229.637 137.464C229.979 137.898 230.471 138.19 231.016 138.282C231.231 138.313 231.451 138.29 231.655 138.214C231.859 138.139 232.04 138.014 232.183 137.85C232.274 137.732 232.339 137.596 232.373 137.451C232.407 137.306 232.41 137.155 232.381 137.009C232.312 136.804 232.237 136.698 232.252 136.69Z" fill="#EB996E"/>
<path d="M238.308 137.151C238.308 137.151 238.436 136.954 238.778 136.764C239.245 136.527 239.777 136.447 240.294 136.537L240.165 136.719C240.007 136.474 239.863 136.221 239.733 135.961C239.239 135.089 239.003 134.096 239.05 133.096C239.255 134.043 239.56 134.965 239.96 135.847C240.089 136.105 240.233 136.348 240.369 136.567L240.521 136.81L240.248 136.749C239.773 136.655 239.281 136.7 238.831 136.878C238.505 137.037 238.33 137.196 238.308 137.151Z" fill="#EB996E"/>
<path d="M231.319 128.951C231.387 128.951 231.494 129.436 231.213 129.974C230.933 130.513 230.455 130.732 230.455 130.672C230.455 130.611 230.758 130.338 230.993 129.861C231.228 129.383 231.251 128.951 231.319 128.951Z" fill="#EB996E"/>
<path d="M270.311 167.661L285.266 157.306C285.266 157.306 283.955 197.405 283.955 197.776C283.955 197.776 281.218 198.86 281.681 201.725L282.439 205.765C298.91 209.555 315.23 212.004 331.838 205.887L333.725 173.944L339.584 134.923L326.221 129.238L323.947 123.932L310.106 138.841L306.566 129.215L306.665 125.584L303.314 129.222L287.093 131.891L266.885 148.271L260.26 142.912L250.262 156.799L261.632 168.275C264.512 169.052 267.569 168.835 270.311 167.661Z" fill="#CFD8DC"/>
<path d="M308.075 137.076C307.641 137.321 307.3 137.702 307.104 138.16C306.897 138.686 306.797 139.248 306.809 139.813C306.846 140.584 306.738 141.355 306.49 142.087L306.324 142.481L306.157 142.087C305.708 140.961 305.353 139.799 305.096 138.615C304.527 136.159 304.163 133.908 303.913 132.278C303.747 131.403 303.653 130.516 303.633 129.625C303.875 130.481 304.062 131.352 304.194 132.233C304.505 133.847 304.914 136.083 305.482 138.524C305.733 139.687 306.07 140.83 306.49 141.943H306.157C306.391 141.262 306.509 140.547 306.506 139.828C306.514 139.229 306.651 138.64 306.907 138.099C307.064 137.739 307.329 137.437 307.665 137.235C307.923 137.069 308.067 137.061 308.075 137.076Z" fill="#263238"/>
<path d="M325.471 131.08C325.349 131.319 325.196 131.541 325.016 131.74C324.698 132.149 324.258 132.733 323.651 133.445C322.484 134.87 320.862 136.818 319.043 138.956L316.147 142.336L315.927 142.594L315.844 142.261C315.427 140.616 315.086 139.229 314.874 138.243C314.783 137.758 314.51 137.485 314.245 137.485C314.115 137.479 313.987 137.516 313.881 137.591C313.881 137.591 313.934 137.394 314.245 137.371C314.338 137.371 314.43 137.388 314.515 137.423C314.601 137.459 314.679 137.51 314.745 137.576C314.905 137.756 315.019 137.972 315.079 138.205C315.359 139.176 315.746 140.548 316.185 142.192L315.882 142.117L318.74 138.713C320.559 136.576 322.219 134.658 323.439 133.278C324.046 132.589 324.546 132.035 324.895 131.656C325.062 131.441 325.256 131.248 325.471 131.08Z" fill="#263238"/>
<path d="M305.474 193.85C305.441 193.68 305.428 193.507 305.436 193.334C305.436 192.963 305.436 192.478 305.436 191.879C305.436 190.613 305.436 188.778 305.436 186.512C305.489 181.964 305.701 175.726 306.194 168.836C306.687 161.945 307.43 155.715 308.051 151.227C308.362 148.953 308.635 147.172 308.847 145.921L309.09 144.489C309.119 144.32 309.157 144.153 309.203 143.988C309.225 144.157 309.225 144.328 309.203 144.496C309.158 144.868 309.097 145.353 309.029 145.944C308.862 147.248 308.635 149.052 308.354 151.25C307.809 155.745 307.134 161.96 306.618 168.851C306.103 175.741 305.86 181.979 305.716 186.504C305.663 188.733 305.625 190.552 305.595 191.864C305.595 192.465 305.58 192.95 305.55 193.319C305.536 193.497 305.511 193.675 305.474 193.85Z" fill="#263238"/>
<path d="M301.684 203.053C301.352 201.965 301.233 200.822 301.335 199.688C301.295 198.555 301.413 197.423 301.684 196.322C301.791 197.444 301.791 198.574 301.684 199.695C301.639 201.545 301.76 203.038 301.684 203.053Z" fill="#263238"/>
<path d="M320.908 192.023C320.52 192.21 320.117 192.362 319.702 192.478C318.944 192.751 317.762 193.115 316.337 193.532C312.611 194.606 308.831 195.484 305.012 196.162C301.196 196.836 297.348 197.315 293.483 197.595C291.967 197.693 290.792 197.754 289.959 197.769C289.53 197.805 289.099 197.805 288.67 197.769C289.092 197.686 289.521 197.638 289.951 197.625L293.46 197.329C296.409 197.057 300.487 196.571 304.944 195.813C309.401 195.055 313.396 194.047 316.261 193.289L319.657 192.365C320.066 192.222 320.483 192.108 320.908 192.023Z" fill="#263238"/>
<path d="M285.22 166.494C285.114 166.494 285.046 160.915 285.069 154.04C285.092 147.165 285.205 141.586 285.311 141.586C285.418 141.586 285.486 147.165 285.463 154.04C285.44 160.915 285.334 166.494 285.22 166.494Z" fill="#263238"/>
<g opacity="0.3">
<path d="M311.395 140.184C311.804 140.169 312.206 140.293 312.536 140.535C312.866 140.777 313.105 141.123 313.214 141.518C313.365 142.329 313.252 143.185 313.464 143.989C313.676 144.792 314.411 145.573 315.222 145.406C315.705 145.247 316.116 144.922 316.382 144.489C317.974 142.334 319.25 139.963 320.172 137.447C320.172 137.508 315.973 142.268 315.973 142.268C315.817 141.064 315.501 139.886 315.033 138.766C314.897 138.402 314.73 137.781 314.381 137.622C313.813 137.356 313.055 138.19 312.676 138.698C312.288 139.211 311.848 139.684 311.364 140.108" fill="black"/>
</g>
<g opacity="0.3">
<path d="M304.55 135.855C304.625 138.521 305.137 141.156 306.066 143.655C306.146 143.91 306.287 144.141 306.475 144.33C306.571 144.43 306.698 144.495 306.835 144.515C306.972 144.536 307.112 144.511 307.233 144.443C307.539 143.932 307.793 143.391 307.991 142.829C308.378 141.745 309.954 141.646 309.954 141.646C309.691 140.422 309.347 139.217 308.923 138.038C308.847 137.844 308.712 137.679 308.536 137.566C308.361 137.453 308.154 137.398 307.946 137.409C307.672 137.5 307.428 137.663 307.239 137.88C307.05 138.098 306.922 138.362 306.869 138.645C306.634 140.585 306.665 141.48 306.377 142.162C305.619 140.085 305.043 137.614 304.557 135.787" fill="black"/>
</g>
<g opacity="0.3">
<path d="M316.178 193.29C316.357 193.162 316.509 192.999 316.625 192.811C316.741 192.623 316.818 192.414 316.851 192.195C316.885 191.977 316.875 191.755 316.822 191.54C316.769 191.326 316.674 191.125 316.542 190.948C316.26 190.603 315.892 190.339 315.475 190.182C315.059 190.025 314.608 189.981 314.169 190.053C313.293 190.206 312.469 190.576 311.774 191.13C311.054 191.653 310.394 192.244 309.636 192.706C307.779 193.851 305.52 194.109 303.337 194.147C301.158 194.056 298.974 194.153 296.811 194.435C294.673 194.852 292.536 195.951 291.505 197.876C291.497 197.838 310.137 196.512 316.178 193.29Z" fill="black"/>
</g>
<path d="M339.584 134.924C339.584 134.924 345.224 138.941 346.588 142.58C347.952 146.218 352.993 171.209 353.812 175.477C354.85 180.843 354.88 187.484 347.156 190.008C344.284 190.94 326.69 189.507 326.69 189.507L327.267 177.008L336.764 177.364C336.764 177.364 336.196 176.523 337.56 175.507L334.528 159.248C334.528 159.248 335.642 141.981 335.779 141.571C335.915 141.162 339.584 134.924 339.584 134.924Z" fill="#CFD8DC"/>
<path d="M339.888 135.355C338.219 136.042 336.713 137.072 335.467 138.377C334.221 139.683 333.264 141.236 332.656 142.935C332.697 142.409 332.836 141.895 333.066 141.419C334.071 138.969 335.967 136.989 338.372 135.878C338.841 135.615 339.355 135.437 339.888 135.355Z" fill="#263238"/>
<path d="M342.966 179.895C342.905 179.895 342.776 179.478 342.397 178.894C341.893 178.136 341.234 177.493 340.464 177.007C339.709 176.5 338.853 176.161 337.955 176.014C337.265 175.915 336.826 176.014 336.811 175.93C337.173 175.746 337.584 175.68 337.985 175.741C338.951 175.813 339.88 176.134 340.684 176.673C341.501 177.189 342.174 177.903 342.64 178.75C342.858 179.091 342.972 179.489 342.966 179.895Z" fill="#263238"/>
<path d="M332.763 149.371C332.878 149.696 332.964 150.031 333.02 150.372C333.18 151.13 333.369 152.032 333.604 153.138C334.074 155.481 334.696 158.717 335.355 162.295C336.015 165.873 336.598 169.117 337 171.474C337.182 172.596 337.333 173.529 337.447 174.264C337.521 174.602 337.559 174.948 337.561 175.295C337.444 174.969 337.356 174.635 337.296 174.294C337.144 173.536 336.954 172.634 336.719 171.527C336.249 169.185 335.628 165.949 334.968 162.371C334.309 158.793 333.725 155.549 333.324 153.191C333.142 152.07 332.99 151.137 332.876 150.402C332.802 150.063 332.764 149.718 332.763 149.371Z" fill="#263238"/>
<path d="M326.698 189.499C326.668 189.176 326.668 188.851 326.698 188.529C326.698 187.839 326.698 186.952 326.759 185.883C326.827 183.609 326.941 180.509 327.1 176.984V176.795H327.297L328.858 176.856L336.787 177.197H336.84L336.878 177.235C338.058 178.196 338.956 179.458 339.478 180.888C339.618 181.283 339.727 181.689 339.804 182.101C339.84 182.244 339.853 182.393 339.842 182.541C339.796 182.541 339.705 181.942 339.304 180.956C338.738 179.593 337.833 178.398 336.673 177.485L336.772 177.523L328.843 177.25L327.282 177.181L327.479 177C327.32 180.517 327.153 183.647 327.016 185.883C326.941 186.952 326.88 187.839 326.834 188.529C326.825 188.856 326.779 189.182 326.698 189.499Z" fill="#263238"/>
<path d="M312.82 174.386L305.475 159.392C305.229 158.894 304.849 158.474 304.378 158.181C303.906 157.887 303.362 157.732 302.806 157.732H284.304C284.147 157.732 283.992 157.772 283.856 157.849C283.719 157.926 283.605 158.038 283.525 158.172C283.444 158.307 283.401 158.46 283.398 158.617C283.395 158.774 283.433 158.929 283.508 159.067L296.015 182.428C296.189 182.749 296.446 183.016 296.76 183.203C297.073 183.39 297.431 183.489 297.796 183.489H316.966L312.82 174.386Z" fill="#455A64"/>
<path d="M283.629 159.179H284H285.054H288.95L301.783 159.072C302.376 159.067 302.962 159.208 303.489 159.482C303.974 159.791 304.367 160.226 304.626 160.74C305.164 161.763 305.611 162.832 306.081 163.772L308.537 169.002L310.212 172.512C310.401 172.898 310.561 173.209 310.69 173.459C310.736 173.573 310.798 173.68 310.871 173.778C310.847 173.656 310.807 173.539 310.75 173.429C310.644 173.171 310.5 172.853 310.333 172.459C309.947 171.572 309.408 170.367 308.757 168.896C308.105 167.426 307.241 165.606 306.369 163.643C305.907 162.65 305.474 161.612 304.921 160.543C304.635 159.975 304.2 159.495 303.663 159.156C303.089 158.85 302.448 158.691 301.798 158.693C296.765 158.693 292.24 158.837 288.912 158.906L285.024 159.012L283.962 159.057C283.846 159.081 283.733 159.122 283.629 159.179Z" fill="#263238"/>
<path d="M295.022 162.462C294.934 162.494 294.855 162.547 294.791 162.615C294.727 162.683 294.679 162.765 294.652 162.855C294.625 162.944 294.619 163.039 294.634 163.131C294.65 163.223 294.687 163.311 294.741 163.387C294.843 163.545 294.993 163.667 295.169 163.734C295.345 163.8 295.538 163.809 295.719 163.758C295.841 163.731 295.953 163.671 296.043 163.584C296.133 163.497 296.196 163.386 296.227 163.265C296.239 163.082 296.191 162.9 296.09 162.747C295.988 162.593 295.84 162.477 295.666 162.416C295.451 162.379 295.23 162.395 295.022 162.462Z" fill="white"/>
<path d="M327.07 177.516L322.476 177.069C322.476 177.069 320.392 174.704 319.573 173.991C318.754 173.279 314.07 170.959 314.07 170.959C314.07 170.959 311.637 168.375 311.318 168.413C311 168.45 310 168.761 310.432 170.042C310.842 171.316 311.381 172.545 312.039 173.711L302.783 175.03C302.494 175.066 302.216 175.165 301.97 175.321C301.724 175.477 301.515 175.686 301.358 175.932C301.154 176.273 301.093 176.629 301.555 176.788C303.23 177.174 304.926 177.463 306.634 177.653L304.815 177.41C304.815 177.41 304.641 179.138 305.853 179.805C306.319 180.014 306.755 180.284 307.149 180.609C307.257 181.381 307.531 182.121 307.953 182.777C308.514 183.36 314.062 185.422 314.062 185.422C314.062 185.422 317.527 186.013 319.202 185.725L326.706 186.87L327.07 177.516Z" fill="#FFBE9D"/>
<path d="M311.145 173.877C312.025 173.938 312.909 173.938 313.79 173.877C314.674 173.932 315.561 173.868 316.428 173.688C315.555 173.537 314.667 173.488 313.782 173.544C312.89 173.495 311.997 173.608 311.145 173.877Z" fill="#EB996E"/>
<path d="M312.88 177.84C311.606 177.545 310.297 177.427 308.991 177.492C307.915 177.492 306.944 177.492 306.24 177.492C305.86 177.465 305.479 177.481 305.103 177.537C305.464 177.669 305.847 177.731 306.232 177.719C306.944 177.772 307.915 177.795 308.991 177.803C311.136 177.81 312.864 177.924 312.88 177.84Z" fill="#EB996E"/>
<path d="M313.244 180.882C313.244 180.783 311.879 180.882 310.212 180.813C308.544 180.745 307.18 180.48 307.18 180.578C308.146 180.954 309.175 181.147 310.212 181.147C311.23 181.25 312.259 181.16 313.244 180.882Z" fill="#EB996E"/>
<path d="M313.093 184.344C313.184 184.344 313.275 183.973 313.297 183.495C313.32 183.018 313.259 182.639 313.168 182.631C313.077 182.623 312.987 183.01 312.964 183.48C312.941 183.95 313.002 184.344 313.093 184.344Z" fill="#EB996E"/>
<path d="M313.434 180.176C313.525 180.176 313.54 179.85 313.661 179.509C313.782 179.168 313.957 178.926 313.896 178.85C313.835 178.774 313.494 178.971 313.35 179.403C313.206 179.835 313.35 180.199 313.434 180.176Z" fill="#EB996E"/>
<path d="M314.002 175.969C314.101 175.969 314.169 175.764 314.252 175.529C314.336 175.294 314.411 175.089 314.343 175.029C314.275 174.968 314.047 175.12 313.941 175.415C313.835 175.711 313.911 175.976 314.002 175.969Z" fill="#EB996E"/>
</svg>
